<svg width="23" height="17" viewBox="0 0 23 17" fill="none" xmlns="http://www.w3.org/2000/svg">
<path d="M14.1744 16.782C14.0481 16.7825 13.9249 16.7431 13.8223 16.6696L8.99906 13.177L4.17585 16.6696C4.0728 16.7443 3.94866 16.7842 3.82136 16.7838C3.69407 16.7833 3.57022 16.7424 3.46772 16.667C3.36522 16.5916 3.28938 16.4856 3.25117 16.3644C3.21296 16.2431 3.21436 16.1128 3.25515 15.9924L5.13629 10.4271L0.260942 7.08772C0.155339 7.01547 0.0756353 6.91138 0.0334775 6.79066C-0.00868039 6.66994 -0.0110835 6.53892 0.0266195 6.41674C0.0643224 6.29455 0.140155 6.18762 0.243038 6.11155C0.345922 6.03548 0.470463 5.99427 0.598466 5.99393H6.61314L8.42827 0.414488C8.46738 0.29403 8.54367 0.189038 8.64622 0.114573C8.74876 0.0401093 8.87228 0 8.99906 0C9.12584 0 9.24937 0.0401093 9.35191 0.114573C9.45446 0.189038 9.53075 0.29403 9.56985 0.414488L11.385 5.99581H17.3997C17.5278 5.99574 17.6526 6.03667 17.7558 6.11259C17.859 6.18851 17.9352 6.29544 17.9731 6.41771C18.011 6.53999 18.0088 6.67119 17.9667 6.79209C17.9246 6.91299 17.8448 7.01725 17.7391 7.08959L12.8618 10.4271L14.7418 15.9909C14.7723 16.0809 14.7809 16.177 14.7668 16.271C14.7528 16.365 14.7166 16.4544 14.6611 16.5317C14.6057 16.609 14.5327 16.672 14.448 16.7155C14.3634 16.759 14.2696 16.7818 14.1744 16.782Z" fill="#b6c1c3"/>
</svg>
